<?xml version="1.0" standalone="no"?>
<!DOCTYPE svg PUBLIC "-//W3C//DTD SVG 20010904//EN"
 "http://www.w3.org/TR/2001/REC-SVG-20010904/DTD/svg10.dtd">
<svg version="1.0" xmlns="http://www.w3.org/2000/svg"
 width="66.000000pt" height="63.000000pt" viewBox="0 0 66.000000 63.000000"
 preserveAspectRatio="xMidYMid meet">

<g transform="translate(0.000000,63.000000) scale(0.100000,-0.100000)"
fill="#000000" stroke="none">
<path d="M255 476 c-108 -49 -129 -175 -40 -252 45 -40 83 -48 141 -28 l46 16
38 -37 c33 -32 38 -34 50 -20 11 14 8 21 -24 54 l-37 37 17 39 c28 69 -6 149
-80 184 -49 24 -69 25 -111 7z m121 -68 c40 -37 35 -122 -9 -153 -35 -24 -103
-20 -132 10 -27 26 -34 89 -14 126 25 48 111 57 155 17z"/>
</g>
</svg>
