<?xml version="1.0" standalone="no"?>
<!DOCTYPE svg PUBLIC "-//W3C//DTD SVG 20010904//EN"
 "http://www.w3.org/TR/2001/REC-SVG-20010904/DTD/svg10.dtd">
<svg version="1.0" xmlns="http://www.w3.org/2000/svg"
 width="66.000000pt" height="63.000000pt" viewBox="0 0 66.000000 63.000000"
 preserveAspectRatio="xMidYMid meet">

<g transform="translate(0.000000,63.000000) scale(0.100000,-0.100000)"
fill="#000000" stroke="none">
<path d="M251 489 c-56 -28 -81 -70 -81 -133 0 -111 97 -174 207 -134 31 11
35 10 67 -21 24 -23 40 -32 52 -27 15 6 12 12 -21 46 l-39 40 16 45 c18 48 12
95 -19 142 -36 55 -118 74 -182 42z m134 -59 c30 -28 38 -73 21 -115 -17 -40
-42 -55 -93 -55 -50 0 -80 22 -92 67 -13 45 10 101 49 121 33 17 87 8 115 -18z"/>
</g>
</svg>
